<svg id="visual" viewBox="0 0 900 600" width="900" height="600" xmlns="http://www.w3.org/2000/svg" xmlns:xlink="http://www.w3.org/1999/xlink" version="1.1"><rect x="0" y="0" width="900" height="600" fill="#001220"></rect><path d="M0 200L18.8 209.2C37.7 218.3 75.3 236.7 112.8 248.7C150.3 260.7 187.7 266.3 225.2 259.5C262.7 252.7 300.3 233.3 337.8 235.7C375.3 238 412.7 262 450.2 246C487.7 230 525.3 174 562.8 155.8C600.3 137.7 637.7 157.3 675.2 179.8C712.7 202.3 750.3 227.7 787.8 238.7C825.3 249.7 862.7 246.3 881.3 244.7L900 243L900 601L881.3 601C862.7 601 825.3 601 787.8 601C750.3 601 712.7 601 675.2 601C637.7 601 600.3 601 562.8 601C525.3 601 487.7 601 450.2 601C412.7 601 375.3 601 337.8 601C300.3 601 262.7 601 225.2 601C187.7 601 150.3 601 112.8 601C75.3 601 37.7 601 18.8 601L0 601Z" fill="#c62368"></path><path d="M0 304L18.8 285.3C37.7 266.7 75.3 229.3 112.8 215.2C150.3 201 187.7 210 225.2 229.7C262.7 249.3 300.3 279.7 337.8 293.2C375.3 306.7 412.7 303.3 450.2 285.8C487.7 268.3 525.3 236.7 562.8 223.5C600.3 210.3 637.7 215.7 675.2 213.8C712.7 212 750.3 203 787.8 221.5C825.3 240 862.7 286 881.3 309L900 332L900 601L881.3 601C862.7 601 825.3 601 787.8 601C750.3 601 712.7 601 675.2 601C637.7 601 600.3 601 562.8 601C525.3 601 487.7 601 450.2 601C412.7 601 375.3 601 337.8 601C300.3 601 262.7 601 225.2 601C187.7 601 150.3 601 112.8 601C75.3 601 37.7 601 18.8 601L0 601Z" fill="#d03267"></path><path d="M0 369L18.8 348.5C37.7 328 75.3 287 112.8 281.3C150.3 275.7 187.7 305.3 225.2 324.7C262.7 344 300.3 353 337.8 357.8C375.3 362.7 412.7 363.3 450.2 366.2C487.7 369 525.3 374 562.8 357C600.3 340 637.7 301 675.2 283.7C712.7 266.3 750.3 270.7 787.8 290.8C825.3 311 862.7 347 881.3 365L900 383L900 601L881.3 601C862.7 601 825.3 601 787.8 601C750.3 601 712.7 601 675.2 601C637.7 601 600.3 601 562.8 601C525.3 601 487.7 601 450.2 601C412.7 601 375.3 601 337.8 601C300.3 601 262.7 601 225.2 601C187.7 601 150.3 601 112.8 601C75.3 601 37.7 601 18.8 601L0 601Z" fill="#da3f67"></path><path d="M0 425L18.8 422.5C37.7 420 75.3 415 112.8 401.5C150.3 388 187.7 366 225.2 350C262.7 334 300.3 324 337.8 331.8C375.3 339.7 412.7 365.3 450.2 370C487.7 374.7 525.3 358.3 562.8 363.2C600.3 368 637.7 394 675.2 401.8C712.7 409.7 750.3 399.3 787.8 392.5C825.3 385.7 862.7 382.3 881.3 380.7L900 379L900 601L881.3 601C862.7 601 825.3 601 787.8 601C750.3 601 712.7 601 675.2 601C637.7 601 600.3 601 562.8 601C525.3 601 487.7 601 450.2 601C412.7 601 375.3 601 337.8 601C300.3 601 262.7 601 225.2 601C187.7 601 150.3 601 112.8 601C75.3 601 37.7 601 18.8 601L0 601Z" fill="#e34c67"></path><path d="M0 400L18.8 396.7C37.7 393.3 75.3 386.7 112.8 389.8C150.3 393 187.7 406 225.2 422.5C262.7 439 300.3 459 337.8 462.8C375.3 466.7 412.7 454.3 450.2 442.7C487.7 431 525.3 420 562.8 415.7C600.3 411.3 637.7 413.7 675.2 410.5C712.7 407.3 750.3 398.7 787.8 403.8C825.3 409 862.7 428 881.3 437.5L900 447L900 601L881.3 601C862.7 601 825.3 601 787.8 601C750.3 601 712.7 601 675.2 601C637.7 601 600.3 601 562.8 601C525.3 601 487.7 601 450.2 601C412.7 601 375.3 601 337.8 601C300.3 601 262.7 601 225.2 601C187.7 601 150.3 601 112.8 601C75.3 601 37.7 601 18.8 601L0 601Z" fill="#eb5967"></path><path d="M0 495L18.8 496C37.7 497 75.3 499 112.8 488.3C150.3 477.7 187.7 454.3 225.2 446.2C262.7 438 300.3 445 337.8 459.8C375.3 474.7 412.7 497.3 450.2 508.8C487.7 520.3 525.3 520.7 562.8 509C600.3 497.3 637.7 473.7 675.2 465.5C712.7 457.3 750.3 464.7 787.8 464.2C825.3 463.7 862.7 455.3 881.3 451.2L900 447L900 601L881.3 601C862.7 601 825.3 601 787.8 601C750.3 601 712.7 601 675.2 601C637.7 601 600.3 601 562.8 601C525.3 601 487.7 601 450.2 601C412.7 601 375.3 601 337.8 601C300.3 601 262.7 601 225.2 601C187.7 601 150.3 601 112.8 601C75.3 601 37.7 601 18.8 601L0 601Z" fill="#f36567"></path><path d="M0 549L18.8 540C37.7 531 75.3 513 112.8 512.8C150.3 512.7 187.7 530.3 225.2 530.5C262.7 530.7 300.3 513.3 337.8 515.8C375.3 518.3 412.7 540.7 450.2 551.7C487.7 562.7 525.3 562.3 562.8 553.7C600.3 545 637.7 528 675.2 520.8C712.7 513.7 750.3 516.3 787.8 523.2C825.3 530 862.7 541 881.3 546.5L900 552L900 601L881.3 601C862.7 601 825.3 601 787.8 601C750.3 601 712.7 601 675.2 601C637.7 601 600.3 601 562.8 601C525.3 601 487.7 601 450.2 601C412.7 601 375.3 601 337.8 601C300.3 601 262.7 601 225.2 601C187.7 601 150.3 601 112.8 601C75.3 601 37.7 601 18.8 601L0 601Z" fill="#fa7268"></path></svg>